<?xml version="1.0" encoding="iso-8859-1"?>
<!-- Generator: Adobe Illustrator 19.0.0, SVG Export Plug-In . SVG Version: 6.00 Build 0)  -->
<svg version="1.1" id="Layer_1" xmlns="http://www.w3.org/2000/svg" xmlns:xlink="http://www.w3.org/1999/xlink" x="0px" y="0px"
	 viewBox="0 0 512 512" style="enable-background:new 0 0 512 512;" xml:space="preserve">
<g>
	<path style="fill:#54CCFF;" d="M300.522,66.783c0,25.711-19.478,46.97-44.522,49.753c-1.78,0.223-3.674,0.334-5.565,0.334
		c-27.603,0-50.087-22.483-50.087-50.087s22.483-50.087,50.087-50.087c1.891,0,3.785,0.111,5.565,0.334
		C281.043,19.812,300.522,41.071,300.522,66.783z"/>
	<path style="fill:#54CCFF;" d="M406.261,289.391h-66.783c0-28.271-13.579-67.339-26.046-100.842l-17.919,29.162
		c-3.339,5.454-8.014,9.795-13.468,12.466L256,243.2l-40.736,20.369c-16.029,8.125-36.285,2.003-44.744-14.915
		c-8.348-16.584-1.448-36.619,14.913-44.744l56.878-28.494c5.565-11.13,10.016-20.257,13.69-27.603
		c15.471-31.944,15.915-34.059,23.597-40.181c11.464-9.35,28.382-10.24,40.961-0.779
		C370.756,144.473,406.261,226.727,406.261,289.391z"/>
</g>
<path style="fill:#C4CAD9;" d="M50.087,495.304c-9.223,0-16.696-7.473-16.696-16.696v-77.913c0-9.223,7.473-16.696,16.696-16.696
	s16.696,7.473,16.696,16.696v77.913C66.783,487.831,59.31,495.304,50.087,495.304z"/>
<path style="fill:#B8BFCC;" d="M461.913,495.304c-9.223,0-16.696-7.473-16.696-16.696v-77.913c0-9.223,7.473-16.696,16.696-16.696
	s16.696,7.473,16.696,16.696v77.913C478.609,487.831,471.136,495.304,461.913,495.304z"/>
<path style="fill:#4BB8E6;" d="M378.435,495.304c-18.413,0-33.391-14.978-33.391-33.391v-72.348h66.783v72.348
	C411.826,480.326,396.848,495.304,378.435,495.304z"/>
<path style="fill:#F9BC35;" d="M61.217,350.609c-27.619,0-50.087-22.468-50.087-50.087s22.468-50.087,50.087-50.087
	s50.087,22.468,50.087,50.087S88.836,350.609,61.217,350.609z"/>
<path style="fill:#5C5F66;" d="M512,384c0,18.365-15.026,33.391-33.391,33.391H33.391C15.026,417.391,0,402.365,0,384
	s15.026-33.391,33.391-33.391h445.217C496.974,350.609,512,365.635,512,384z"/>
<path style="fill:#F9BC35;" d="M512,317.217c0,18.365-15.026,33.391-33.391,33.391H178.087v44.522c0,5.12-1.224,10.351-3.563,14.915
	l-33.391,66.783c-8.348,16.918-28.604,23.04-44.744,14.915c-16.473-8.237-23.149-28.271-14.913-44.744l29.828-59.77v-70.233
	c0.111-18.365,15.026-33.169,33.391-33.169h333.913C496.974,283.826,512,298.852,512,317.217z"/>
<g>
	<path style="fill:#4BB8E6;" d="M300.522,66.783c0,25.711-19.478,46.97-44.522,49.753V17.03
		C281.043,19.812,300.522,41.071,300.522,66.783z"/>
	<path style="fill:#4BB8E6;" d="M406.261,289.391h-66.783c0-28.271-13.579-67.339-26.046-100.842l-17.919,29.162
		c-3.339,5.454-8.014,9.795-13.468,12.466L256,243.2v-95.388c15.471-31.944,15.915-34.059,23.597-40.181
		c11.464-9.35,28.382-10.24,40.961-0.779C370.756,144.473,406.261,226.727,406.261,289.391z"/>
</g>
<path style="fill:#53565C;" d="M512,384c0,18.365-15.026,33.391-33.391,33.391H256v-66.783h222.609
	C496.974,350.609,512,365.635,512,384z"/>
<path style="fill:#F39E31;" d="M512,317.217c0,18.365-15.026,33.391-33.391,33.391H256v-66.783h222.609
	C496.974,283.826,512,298.852,512,317.217z"/>
<g>
</g>
<g>
</g>
<g>
</g>
<g>
</g>
<g>
</g>
<g>
</g>
<g>
</g>
<g>
</g>
<g>
</g>
<g>
</g>
<g>
</g>
<g>
</g>
<g>
</g>
<g>
</g>
<g>
</g>
</svg>
