<?xml version="1.0" encoding="iso-8859-1"?>
<!-- Generator: Adobe Illustrator 19.0.0, SVG Export Plug-In . SVG Version: 6.00 Build 0)  -->
<svg version="1.1" id="Layer_1" xmlns="http://www.w3.org/2000/svg" xmlns:xlink="http://www.w3.org/1999/xlink" x="0px" y="0px"
	 viewBox="0 0 512 512" style="enable-background:new 0 0 512 512;" xml:space="preserve">
<path style="fill:#F9BC35;" d="M466.488,392.533v84.64c0,17.896-13.504,33.275-31.342,34.714
	c-20.018,1.613-36.924-14.326-36.924-34.021V409.6c0-9.425-7.641-17.067-17.067-17.067h-51.2c-12.516,0-24.121-3.3-34.133-9.216
	c-20.366-11.719-34.133-33.792-34.133-59.051V216.871c0-17.896,13.504-33.275,31.342-34.714
	c20.018-1.613,36.924,14.325,36.924,34.021v108.089h68.267C435.924,324.267,466.488,354.831,466.488,392.533z"/>
<path style="fill:#5C5F66;" d="M261.688,494.933V409.6c0-9.425,7.641-17.067,17.067-17.067h102.4
	c9.425,0,17.067,7.641,17.067,17.067v85.333c0,9.425-7.641,17.067-17.067,17.067h-102.4
	C269.329,512,261.688,504.359,261.688,494.933z"/>
<path style="fill:#4BB8E6;" d="M210.488,102.4c-28.233,0-51.2-22.967-51.2-51.2S182.255,0,210.488,0s51.2,22.967,51.2,51.2
	S238.721,102.4,210.488,102.4z"/>
<path style="fill:#54CCFF;" d="M318.577,147.911c0,18.887-15.36,34.133-34.133,34.133h-68.267c-5.234,0-10.58-1.252-15.247-3.641
	l-48.582-24.235c-21.959,27.648-38.571,53.817-38.571,96.142v227.556c0,18.773-15.36,34.133-34.133,34.133
	s-34.133-15.36-34.133-34.133V250.311c0-8.42,0.569-17.067,1.593-25.6c3.982-31.289,15.36-61.326,32.54-87.381
	c12.516-19.001,28.217-35.954,46.422-49.835c6.37-5.234,13.88-7.851,21.617-7.851c11.378,0,12.743,2.276,76.572,34.133h60.188
	C303.217,113.778,318.577,129.138,318.577,147.911z"/>
<path style="fill:#4BB8E6;" d="M318.577,147.911c0,18.887-15.36,34.133-34.133,34.133h-68.267c-5.234,0-10.58-1.252-15.247-3.641
	l-48.582-24.235c-21.959,27.648-38.571,53.817-38.571,96.142v227.556c0,18.773-15.36,34.133-34.133,34.133V137.33
	c12.516-19.001,28.217-35.954,46.422-49.835c6.37-5.234,13.88-7.851,21.617-7.851c11.378,0,12.743,2.276,76.572,34.133h60.188
	C303.217,113.778,318.577,129.138,318.577,147.911z"/>
<path style="fill:#F39E31;" d="M466.488,392.533v84.64c0,17.896-13.504,33.275-31.342,34.714
	c-20.018,1.613-36.924-14.326-36.924-34.021V409.6c0-9.425-7.641-17.067-17.067-17.067h-51.2c-12.516,0-24.121-3.3-34.133-9.216
	V182.044c18.773,0,34.133,15.36,34.133,34.133v108.089h68.267C435.924,324.267,466.488,354.831,466.488,392.533z"/>
<path style="fill:#53565C;" d="M295.821,512h85.333c9.425,0,17.067-7.641,17.067-17.067V409.6c0-9.425-7.641-17.067-17.067-17.067
	h-85.333V512z"/>
<path style="fill:#F39E31;" d="M364.088,221.867c-28.233,0-51.2-22.967-51.2-51.2s22.967-51.2,51.2-51.2s51.2,22.967,51.2,51.2
	S392.321,221.867,364.088,221.867z"/>
<g>
</g>
<g>
</g>
<g>
</g>
<g>
</g>
<g>
</g>
<g>
</g>
<g>
</g>
<g>
</g>
<g>
</g>
<g>
</g>
<g>
</g>
<g>
</g>
<g>
</g>
<g>
</g>
<g>
</g>
</svg>
