<?xml version="1.0" encoding="iso-8859-1"?>
<!-- Generator: Adobe Illustrator 19.0.0, SVG Export Plug-In . SVG Version: 6.00 Build 0)  -->
<svg version="1.1" id="Layer_1" xmlns="http://www.w3.org/2000/svg" xmlns:xlink="http://www.w3.org/1999/xlink" x="0px" y="0px"
	 viewBox="0 0 512 512" style="enable-background:new 0 0 512 512;" xml:space="preserve">
<g>
	<path style="fill:#77757E;" d="M137.224,81.432V13.589C137.224,6.115,143.338,0,150.812,0h208.286
		c7.474,0,13.589,6.115,13.589,13.589v67.844H137.224z"/>
	<path style="fill:#77757E;" d="M103.648,129.074V80.115c0-7.474,6.115-13.589,13.589-13.589h267.591
		c7.474,0,13.589,6.115,13.589,13.589v50.004L103.648,129.074z"/>
</g>
<path style="fill:#3E3B43;" d="M410.796,512h-309.59c-7.474,0-13.589-6.115-13.589-13.589V133.961
	c0-7.474,6.115-13.589,13.589-13.589h309.59c7.474,0,13.589,6.115,13.589,13.589v364.45C424.384,505.885,418.269,512,410.796,512z"
	/>
<rect x="87.616" y="210.728" style="fill:#DFDFE2;" width="336.768" height="202.46"/>
<path style="fill:#FF3F62;" d="M252.912,361.232L252.912,361.232c-12.12-12.12-12.12-31.954,0-44.074l28.347-28.347l28.347-28.347
	c12.12-12.12,31.954-12.12,44.074,0l0,0c12.12,12.12,12.12,31.954,0,44.074l-56.693,56.693
	C284.866,373.352,265.033,373.352,252.912,361.232z"/>
<path style="fill:#D80027;" d="M353.68,260.465L353.68,260.465c-12.12-12.12-31.954-12.12-44.074,0l-28.347,28.347l44.074,44.074
	l28.347-28.347C365.8,292.419,365.8,272.585,353.68,260.465z"/>
<g>
	<rect x="145.064" y="66.532" style="fill:#3E3B43;" width="15.679" height="53.842"/>
	<rect x="195.29" y="66.532" style="fill:#3E3B43;" width="15.679" height="53.842"/>
	<rect x="245.515" y="66.532" style="fill:#3E3B43;" width="15.679" height="53.842"/>
	<rect x="295.751" y="66.532" style="fill:#3E3B43;" width="15.679" height="53.842"/>
	<rect x="345.977" y="66.532" style="fill:#3E3B43;" width="15.679" height="53.842"/>
</g>
<circle style="fill:#52A2E7;" cx="180.206" cy="288.81" r="34.493"/>
<path style="fill:#4E8FE3;" d="M180.31,254.318c-19.05,0-34.493,15.443-34.493,34.493c0,8.214,2.876,15.752,7.668,21.676
	l55.06-41.477C202.306,260.129,191.989,254.318,180.31,254.318z"/>
<g>
	<rect x="137.225" y="45.01" style="opacity:0.53;fill:#3E3B43;enable-background:new    ;" width="235.459" height="21.513"/>
	<rect x="103.65" y="98.319" style="opacity:0.53;fill:#3E3B43;enable-background:new    ;" width="294.768" height="22.804"/>
</g>
<rect x="87.616" y="413.188" style="fill:#2F2D30;" width="336.768" height="23.669"/>
<polygon style="opacity:0.2;fill:#FFFFFF;enable-background:new    ;" points="424.384,263.608 89.798,462.21 89.798,358.941 
	424.384,160.338 "/>
<g>
</g>
<g>
</g>
<g>
</g>
<g>
</g>
<g>
</g>
<g>
</g>
<g>
</g>
<g>
</g>
<g>
</g>
<g>
</g>
<g>
</g>
<g>
</g>
<g>
</g>
<g>
</g>
<g>
</g>
</svg>
