<?xml version="1.0" encoding="iso-8859-1"?>
<!-- Generator: Adobe Illustrator 19.0.0, SVG Export Plug-In . SVG Version: 6.00 Build 0)  -->
<svg version="1.1" id="Layer_1" xmlns="http://www.w3.org/2000/svg" xmlns:xlink="http://www.w3.org/1999/xlink" x="0px" y="0px"
	 viewBox="0 0 511.993 511.993" style="enable-background:new 0 0 511.993 511.993;" xml:space="preserve">
<g>
	<path style="fill:#FFBCAB;" d="M475.665,215.404l26.571-33.394c0.351-0.442,0.476-1.021,0.339-1.568l-9.827-39.079
		c-1.356-5.392-8.354-6.808-11.7-2.369l-35.931,47.664L475.665,215.404z"/>
	<path style="fill:#FFBCAB;" d="M35.811,215.404L10.514,183.61c-1.025-1.289-1.391-2.981-0.99-4.578l9.689-38.531
		c1.202-4.781,7.407-6.037,10.375-2.101l36.541,48.475L35.811,215.404z"/>
</g>
<polygon style="fill:#830018;" points="320.038,165.602 302.902,38.786 208.439,34.099 192.08,165.602 "/>
<path style="fill:#52A2E7;" d="M173.554,167.167l-86.655,45.526l-34.594-43.598L17.717,192.75l42.89,54.053
	c10.113,12.747,28.278,15.678,41.888,6.76l80.367-44.756c2.055-1.144,4.636-0.031,5.214,2.248l12.773,50.312
	c2.67,10.517,3.153,21.469,1.419,32.18l-12.091,74.704l64.991,35.698l65.993-35.698l-10.737-65.98
	c-2.706-16.63-1.971-33.639,2.157-49.975l10.31-40.79c0.575-2.275,3.146-3.392,5.201-2.259l80.445,44.316
	c13.61,8.917,31.774,5.986,41.888-6.76l42.89-54.053l-34.174-25.127l-35.007,45.07l-83.266-43.743
	c-4.186-2.2-8.843-3.348-13.573-3.348h-49.431h-44.697l-53.271,0.001C177.686,165.602,175.509,166.14,173.554,167.167z"/>
<g>
	<path style="fill:#315591;" d="M255.49,403.951c-2.09-0.015-4.131-0.943-5.588-2.532c-2.657-2.899-2.999-3.272-2.945-37.277
		c0.026-16.293,0.23-38.818,0.606-66.946c0.641-47.86,1.57-96.036,1.58-96.518c0.088-4.581,3.662-8.239,7.973-8.13
		c4.315,0.091,7.741,3.876,7.652,8.457c-1.325,68.45-2.952,179.5-1.793,192.049c0.259,0.836,0.397,1.73,0.39,2.658
		C263.332,400.293,259.807,403.982,255.49,403.951z M263.044,393.662h0.01H263.044z"/>
	<path style="fill:#315591;" d="M152.061,422.272l-2.226,0.711l19.233,60.248l86.771-27.7l103.734-33.115l47.216-15.073
		c11.103-3.545,17.23-15.419,13.686-26.522l-7.225-22.632c-3.087-9.672-13.431-15.01-23.103-11.921l-134.308,42.875L152.061,422.272
		z"/>
</g>
<rect x="109.033" y="456.115" transform="matrix(-0.3041 -0.9526 0.9526 -0.3041 -246.9594 754.5721)" style="fill:#ACD4F3;" width="86.179" height="22.742"/>
<path style="fill:#4E8FE3;" d="M342.611,483.231l19.233-60.248l-240.707-76.841c-9.454-3.018-19.565,2.2-22.583,11.654
	l-7.495,23.478c-3.465,10.853,2.525,22.461,13.378,25.926L342.611,483.231z"/>
<rect x="316.508" y="456.106" transform="matrix(0.3041 -0.9526 0.9526 0.3041 -195.0962 667.8782)" style="fill:#ACD4F3;" width="86.179" height="22.742"/>
<rect id="SVGCleanerId_0" x="233.495" y="116.056" style="fill:#FFBCAB;" width="44.697" height="55.642"/>
<path style="fill:#FFBCAB;" d="M256.059,200.356c19.193,0,34.754-15.56,34.754-34.753h-12.405h-44.697h-12.406
	C221.306,184.796,236.865,200.356,256.059,200.356z"/>
<g>
	<rect id="SVGCleanerId_0_1_" x="233.495" y="116.056" style="fill:#FFBCAB;" width="44.697" height="55.642"/>
</g>
<g style="opacity:0.17;">
	<polygon style="fill:#315591;" points="190.024,368.252 254.312,389.143 321.008,368.252 315.443,334.054 195.559,334.054 	"/>
</g>
<g>
	<rect x="233.495" y="116.056" style="fill:#FF9478;" width="44.697" height="27.823"/>
	<path style="fill:#FF9478;" d="M301.982,57.386h4.717c7.154,0,12.954,5.8,12.954,12.954c0,7.154-5.8,12.954-12.954,12.954h-7.275
		H211.61h-7.275c-7.154,0-12.954-5.8-12.954-12.954c0-7.154,5.8-12.954,12.954-12.954h4.717
		C209.052,57.386,301.982,57.386,301.982,57.386z"/>
</g>
<path style="fill:#FFBCAB;" d="M263.838,0c22.923,0,40.918,19.647,38.91,42.481l-5.366,61.052
	c-1.808,15.604-15.022,27.377-30.731,27.377h-22.27c-15.709,0-28.923-11.772-30.731-27.377l-5.366-61.052
	C206.276,19.647,224.271,0,247.194,0H263.838z"/>
<path style="fill:#830018;" d="M244.154,33.108c0,0,10.584,22.673,57.284,24.278l1.311-14.906C304.756,19.647,286.761,0,263.838,0
	h-16.646c-22.923,0-40.918,19.647-38.91,42.481l0.935,10.634C232.359,50.655,244.154,33.108,244.154,33.108z"/>
<g>
</g>
<g>
</g>
<g>
</g>
<g>
</g>
<g>
</g>
<g>
</g>
<g>
</g>
<g>
</g>
<g>
</g>
<g>
</g>
<g>
</g>
<g>
</g>
<g>
</g>
<g>
</g>
<g>
</g>
</svg>
