<?xml version="1.0" encoding="iso-8859-1"?>
<!-- Generator: Adobe Illustrator 19.0.0, SVG Export Plug-In . SVG Version: 6.00 Build 0)  -->
<svg version="1.1" id="Capa_1" xmlns="http://www.w3.org/2000/svg" xmlns:xlink="http://www.w3.org/1999/xlink" x="0px" y="0px"
	 viewBox="0 0 512.001 512.001" style="enable-background:new 0 0 512.001 512.001;" xml:space="preserve">
<path style="fill:#FFA733;" d="M289.26,327.989h-66.519l-97.828,43.678c-21.305,9.512-35.025,30.662-35.025,53.995v64.774
	c0,11.91,9.655,21.565,21.565,21.565h289.095c11.91,0,21.565-9.655,21.565-21.565v-64.775c0-23.332-13.72-44.482-35.025-53.995
	L289.26,327.989z"/>
<path style="fill:#B9D8F4;" d="M387.089,371.667l-42.86-19.136l-87.895,50.104l-87.022-50.79l-44.399,19.823
	c-21.305,9.512-35.025,30.662-35.025,53.995v64.774c0,11.91,9.655,21.565,21.565,21.565h289.095c11.91,0,21.565-9.655,21.565-21.565
	v-64.776C422.114,402.329,408.394,381.178,387.089,371.667z"/>
<path style="fill:#96C8EF;" d="M387.115,371.667l-42.86-19.136l-87.895,50.104l-87.022-50.79l-44.399,19.823
	c-5.695,2.542-10.841,5.924-15.334,9.948l76.628,68.049c8.825,7.837,20.177,12.152,31.965,12.152
	c14.835,0,28.679-6.781,37.778-18.292c9.098,11.511,22.942,18.292,37.777,18.292c11.787,0,23.141-4.315,31.965-12.152l76.678-68.095
	C397.916,377.563,392.787,374.199,387.115,371.667z"/>
<g>
	<path style="fill:#57565C;" d="M169.312,351.844l-44.399,19.823c-21.305,9.512-35.025,30.662-35.025,53.995v64.774
		c0,11.91,9.655,21.565,21.565,21.565h82.034L169.312,351.844z"/>
	<path style="fill:#57565C;" d="M342.69,351.844l44.399,19.823c21.305,9.512,35.025,30.662,35.025,53.995v64.774
		c0,11.91-9.655,21.565-21.565,21.565h-82.034L342.69,351.844z"/>
</g>
<g>
	<path style="fill:#3E3D42;" d="M183.775,447.481l-14.437-95.637l-44.399,19.823c-5.695,2.542-10.841,5.924-15.334,9.947
		L183.775,447.481z"/>
	<path style="fill:#3E3D42;" d="M328.227,447.481l14.437-95.637l44.399,19.823c5.695,2.542,10.841,5.924,15.334,9.947
		L328.227,447.481z"/>
</g>
<g>
	<path style="fill:#D1E7F8;" d="M191.929,341.746l59.228,53.616l-18.611,27.872c-5.816,8.709-17.985,10.275-25.816,3.321
		l-68.501-60.832C138.227,365.723,163.305,344.192,191.929,341.746z"/>
	<path style="fill:#D1E7F8;" d="M319.97,341.746l-59.228,53.616l18.611,27.872c5.816,8.709,17.985,10.275,25.816,3.321
		l68.501-60.832C373.671,365.723,348.593,344.192,319.97,341.746z"/>
</g>
<path style="fill:#D80027;" d="M264.8,402.634h-16.931c0,0-24.488,15.503-19.246,109.366c0.042,0,55.378,0,55.422,0
	C289.288,418.138,264.8,402.634,264.8,402.634z"/>
<path style="fill:#FF3F62;" d="M241.07,385.571h30.529c5.57,0,8.984,6.108,6.067,10.853l-15.264,24.822
	c-2.78,4.521-9.353,4.521-12.133,0l-15.264-24.822C232.085,391.679,235.499,385.571,241.07,385.571z"/>
<circle style="fill:#FFB655;" cx="132.225" cy="236.375" r="32.632"/>
<circle style="fill:#FFC477;" cx="379.777" cy="236.375" r="32.632"/>
<path style="fill:#FFDAAA;" d="M256.001,8.768c-76.669,0-138.822,53.385-138.822,130.054c0,40.282,10.457,87.688,18.805,119.112
	c5.799,21.83,19.647,40.645,38.781,52.646l56.844,35.657c14.916,9.356,33.868,9.356,48.784,0l56.844-35.657
	c19.135-12.003,32.982-30.817,38.781-52.646c8.348-31.424,18.805-78.829,18.805-119.112C394.823,62.153,332.67,8.768,256.001,8.768z
	"/>
<path style="fill:#FFC477;" d="M269.21,9.311c-4.348-0.354-8.752-0.543-13.209-0.543c-76.669,0-138.822,53.385-138.822,130.054
	c0,40.282,10.457,87.688,18.805,119.112c5.799,21.83,19.647,40.645,38.781,52.646l56.844,35.657c14.916,9.356,33.868,9.356,48.784,0
	l7.241-4.542l-49.603-31.115c-19.134-12.003-32.982-30.817-38.781-52.646c-8.348-31.424-18.805-78.829-18.805-119.112
	C180.444,79.803,217.279,29.395,269.21,9.311z"/>
<g>
	<circle style="fill:#79AB03;" cx="199.66" cy="204.264" r="10.302"/>
	<circle style="fill:#79AB03;" cx="312.352" cy="204.264" r="10.302"/>
</g>
<path style="fill:#3E3D42;" d="M256.335,295.683c-8.306,0-16.612-2.27-24.021-6.809c-3.639-2.23-4.78-6.987-2.551-10.625
	c2.23-3.637,6.985-4.78,10.625-2.551c9.836,6.029,22.058,6.028,31.892,0c3.639-2.229,8.394-1.088,10.624,2.551
	c2.229,3.639,1.088,8.395-2.551,10.625C272.947,293.413,264.641,295.683,256.335,295.683z"/>
<g>
	<path style="fill:#6A563D;" d="M317.969,115.495c0,0,21.171,63.754,70.03,89.294c0,0,42.246-119.988-40.851-165.699
		L317.969,115.495z"/>
	<path style="fill:#6A563D;" d="M199.655,131.256c0,0-14.653,36.161-75.77,73.85c-0.509,0.509-42.782-102.371,23.937-149.228
		C148.332,56.388,199.655,131.256,199.655,131.256z"/>
</g>
<g>
	<path style="fill:#5F4D37;" d="M374.894,61.842c-7.145-8.663-16.24-16.422-27.747-22.753l-29.179,76.405
		c0,0,4.448,13.387,13.964,30.347c13.37-12.747,24.325-29.296,32.493-49.328C369.646,83.709,372.893,71.518,374.894,61.842z"/>
	<path style="fill:#5F4D37;" d="M110.226,138.052c18.758,14.366,38.676,25.028,59.658,31.938
		c23.099-22.278,29.77-38.734,29.77-38.734s-51.324-74.868-51.833-75.377C117.999,76.823,109.961,108.958,110.226,138.052z"/>
</g>
<path style="fill:#806749;" d="M347.147,39.09c0,0-6.378,87.432-71.579,103.733c-42.968,10.742-108.155,12.606-169.37-49.53
	c-6.815-6.917-4.874-18.622,3.921-22.735c5.896-2.758,12.078-7.025,17.031-13.525C140.876,39.016,170.904,0,242.11,0
	S347.147,39.09,347.147,39.09z"/>
<path style="fill:#6A563D;" d="M127.149,57.032c-4.953,6.5-11.134,10.767-17.03,13.525c-8.795,4.115-10.736,15.818-3.921,22.735
	c37.106,37.664,75.67,51.81,109.862,54.72l0,0c0,0-55.119-62.044-14.379-143.203C158.76,15.797,137.927,42.886,127.149,57.032z"/>
<g>
</g>
<g>
</g>
<g>
</g>
<g>
</g>
<g>
</g>
<g>
</g>
<g>
</g>
<g>
</g>
<g>
</g>
<g>
</g>
<g>
</g>
<g>
</g>
<g>
</g>
<g>
</g>
<g>
</g>
</svg>
