<?xml version="1.0" encoding="iso-8859-1"?>
<!-- Generator: Adobe Illustrator 19.0.0, SVG Export Plug-In . SVG Version: 6.00 Build 0)  -->
<svg version="1.1" id="Layer_1" xmlns="http://www.w3.org/2000/svg" xmlns:xlink="http://www.w3.org/1999/xlink" x="0px" y="0px"
	 viewBox="0 0 512.006 512.006" style="enable-background:new 0 0 512.006 512.006;" xml:space="preserve">
<path style="fill:#BFA779;" d="M256.007,167.324l10.65-1.818c24.226-4.139,30.276-23.057,35.669-47.36
	c3.089-13.943,6.938-31.292,23.45-31.292c4.565,0,9.19,1.604,14.131,4.89c73.574,49.058,96.427,49.058,146.5,49.058l9.054,21.854
	c-54.75,54.758-138.24,54.835-226.645,54.921l-12.809,0.009V167.324z"/>
<g>
	<path style="fill:#FEDEA1;" d="M243.199,217.569c-88.397-0.085-171.895-0.162-226.645-54.921l9.054-21.845
		c50.074,0,72.926,0,146.5-49.05c4.907-3.277,9.523-4.881,14.106-4.89l0,0c16.538,0,20.386,17.348,23.475,31.292
		c5.393,24.303,11.443,43.221,35.669,47.351l10.65,1.818v50.261L243.199,217.569z"/>
	<circle style="fill:#FEDEA1;" cx="256.007" cy="38.403" r="25.6"/>
</g>
<path style="fill:#573A32;" d="M243.207,230.369v87.817c-22.016-5.726-38.4-25.6-38.4-49.382c0-7.074-5.726-12.8-12.8-12.8
	c-7.074,0-12.8,5.726-12.8,12.8c0,27.767,14.95,51.908,37.086,65.399c-14.686,11.742-24.286,29.577-24.286,49.801
	c0,22.067,11.213,41.549,28.245,53.06c-9.506,9.301-15.445,22.229-15.445,36.54c0,7.074,5.726,12.8,12.8,12.8
	c7.074,0,12.8-5.726,12.8-12.8c0-9.361,5.291-17.203,12.8-21.666v47.266c0,7.074,5.726,12.8,12.8,12.8c7.074,0,12.8-5.726,12.8-12.8
	v-47.266c7.509,4.463,12.8,12.305,12.8,21.666c0,7.074,5.726,12.8,12.8,12.8s12.8-5.726,12.8-12.8
	c0-14.31-5.939-27.238-15.445-36.54c17.033-11.511,28.245-30.993,28.245-53.06c0-20.224-9.6-38.059-24.286-49.792
	c22.135-13.491,37.086-37.641,37.086-65.408c0-7.074-5.726-12.8-12.8-12.8s-12.8,5.726-12.8,12.8
	c0,23.782-16.384,43.657-38.4,49.382v-87.817c99.891-0.094,179.43-2.389,235.699-58.658c7.322-7.322,9.515-18.33,5.547-27.895
	s-13.286-15.812-23.646-15.812c-48.836,0-69.052,0-139.401-46.899c-7.108-4.736-14.046-7.04-21.231-7.04
	c-26.803,0-32.742,26.897-35.934,41.353c-4.659,21.094-8.678,32.375-21.035,36.395V74.456c14.882-5.291,25.6-19.354,25.6-36.053
	c0-21.205-17.195-38.4-38.4-38.4s-38.4,17.195-38.4,38.4c0,16.691,10.718,30.763,25.6,36.053v77.355
	c-12.365-4.019-16.375-15.3-21.035-36.395c-3.191-14.455-9.131-41.353-35.934-41.353c-7.091,0-14.234,2.372-21.231,7.04
	c-70.349,46.899-90.564,46.899-139.401,46.899c-10.351,0-19.686,6.238-23.654,15.804c-3.968,9.566-1.775,20.574,5.547,27.895
	C63.777,227.979,143.316,230.275,243.207,230.369z M243.207,420.048c-14.865-5.299-25.6-19.379-25.6-36.045
	s10.735-30.737,25.6-36.045V420.048z M294.407,384.003c0,16.666-10.735,30.737-25.6,36.045v-72.09
	C283.672,353.266,294.407,367.337,294.407,384.003z M325.776,99.664c1.903,0,4.198,0.853,7.031,2.739
	c76.8,51.2,102.4,51.2,153.6,51.2c-48.998,48.998-121.711,51.072-217.6,51.166v-26.641
	C323.258,168.835,308.632,99.664,325.776,99.664z M256.007,25.603c7.057,0,12.8,5.743,12.8,12.8s-5.743,12.8-12.8,12.8
	s-12.8-5.743-12.8-12.8S248.95,25.603,256.007,25.603z M179.207,102.403c2.825-1.886,5.129-2.739,7.031-2.739
	c17.152-0.009,2.517,69.171,56.969,78.464v26.641c-95.889-0.094-168.602-2.167-217.6-51.166
	C76.807,153.603,102.407,153.603,179.207,102.403z"/>
<g>
</g>
<g>
</g>
<g>
</g>
<g>
</g>
<g>
</g>
<g>
</g>
<g>
</g>
<g>
</g>
<g>
</g>
<g>
</g>
<g>
</g>
<g>
</g>
<g>
</g>
<g>
</g>
<g>
</g>
</svg>
